<?xml version="1.0" encoding="utf-8"?>
<!-- Generator: Adobe Illustrator 21.1.0, SVG Export Plug-In . SVG Version: 6.00 Build 0)  -->
<svg version="1.1" id="Layer_1" xmlns="http://www.w3.org/2000/svg" xmlns:xlink="http://www.w3.org/1999/xlink" x="0px" y="0px"
	 viewBox="0 0 28.3 8.8" style="enable-background:new 0 0 28.3 8.8;" xml:space="preserve">
<style type="text/css">
	.st0{fill:#FCF4E6;}
</style>
<g>
	<g>
		<path class="st0" d="M2.5,2.5v5H1.6v-5H0V1.7h4.1v0.8H2.5z"/>
		<path class="st0" d="M7,6.7V4.4C7,4.2,6.9,4,6.8,3.9C6.7,3.7,6.5,3.7,6.2,3.7c-0.1,0-0.3,0-0.4,0.1C5.7,3.9,5.6,3.9,5.5,4v2.6H4.7
			v-5l0.9-0.2v1.8C5.7,3,6,2.9,6.4,2.9c0.5,0,0.8,0.1,1.1,0.4c0.3,0.3,0.4,0.6,0.4,1.1v2.3H7z"/>
		<path class="st0" d="M12.1,5.1H9.5c0,0.3,0.1,0.5,0.3,0.7C9.9,5.9,10.2,6,10.5,6c0.4,0,0.7-0.1,0.9-0.3l0.3,0.7
			c-0.3,0.2-0.7,0.4-1.3,0.4c-0.6,0-1-0.2-1.3-0.5C8.7,5.9,8.6,5.5,8.6,4.9c0-0.6,0.2-1,0.5-1.4c0.4-0.4,0.8-0.5,1.3-0.5
			c0.5,0,1,0.2,1.3,0.5c0.3,0.3,0.5,0.7,0.5,1.2C12.1,4.7,12.1,4.9,12.1,5.1z M9.5,4.5h1.8c-0.1-0.5-0.4-0.8-0.9-0.8
			C9.9,3.7,9.6,3.9,9.5,4.5z"/>
		<path class="st0" d="M18.9,6.4l0.3-0.8C19.6,5.8,20,6,20.3,6c0.5,0,0.8-0.2,0.8-0.5c0-0.2-0.1-0.3-0.2-0.5
			c-0.1-0.2-0.4-0.3-0.8-0.5c-0.4-0.2-0.6-0.4-0.8-0.5c-0.1-0.1-0.2-0.3-0.3-0.4S19,3.1,19,2.9c0-0.4,0.1-0.7,0.4-1
			c0.3-0.3,0.6-0.4,1.1-0.4c0.6,0,1,0.1,1.3,0.3l-0.3,0.8c-0.3-0.2-0.6-0.3-1-0.3c-0.2,0-0.4,0.1-0.5,0.2c-0.1,0.1-0.2,0.2-0.2,0.4
			c0,0.3,0.3,0.6,1,0.9c0.3,0.2,0.6,0.3,0.7,0.5c0.1,0.1,0.3,0.3,0.3,0.5C21.9,4.9,22,5.1,22,5.4c0,0.4-0.2,0.7-0.5,1
			s-0.7,0.4-1.3,0.4C19.7,6.7,19.3,6.6,18.9,6.4z"/>
		<path class="st0" d="M22.9,6.7v-3h-0.5V3h1.3v3.7H22.9z M23.4,1.6c0.1,0,0.3,0,0.3,0.1c0.1,0.1,0.1,0.2,0.1,0.3
			c0,0.1,0,0.3-0.1,0.3c-0.1,0.1-0.2,0.1-0.3,0.1s-0.3,0-0.3-0.1c-0.1-0.1-0.1-0.2-0.1-0.3c0-0.1,0-0.3,0.1-0.3
			C23.1,1.6,23.2,1.6,23.4,1.6z"/>
		<path class="st0" d="M24.9,1.7l0.9-0.2v4.1c0,0.5,0.1,0.7,0.4,0.8c-0.1,0.3-0.4,0.4-0.7,0.4c-0.4,0-0.6-0.3-0.6-0.8V1.7z"/>
		<path class="st0" d="M27,1.7l0.9-0.2v4.1c0,0.5,0.1,0.7,0.4,0.8c-0.1,0.3-0.4,0.4-0.7,0.4c-0.4,0-0.6-0.3-0.6-0.8V1.7z"/>
	</g>
	<rect x="1.6" y="7.4" class="st0" width="26.8" height="1.4"/>
	<g>
		<path class="st0" d="M13.6,4.4c1.2,0,2.4,0,3.7,0c0,0.1,0,0.3-0.1,0.4C17.1,5.3,17,5.8,17,6.4c-0.1,0.3-0.1,0.6-0.1,0.9
			c0,0.1-0.1,0.1-0.2,0.1c-0.8,0-1.6,0-2.4,0c-0.1,0-0.2,0-0.2-0.1c-0.1-0.5-0.2-1-0.2-1.5c-0.1-0.4-0.1-0.9-0.2-1.3
			C13.6,4.5,13.6,4.5,13.6,4.4z"/>
		<path class="st0" d="M17.6,3.6c0,0.2,0,0.3,0,0.5c-1.4,0-2.8,0-4.2,0c0-0.2,0-0.3,0-0.5c0.7,0,1.3,0,2,0c0,0,0-0.1,0-0.1
			c-0.1-0.3-0.2-0.6-0.5-0.8c-0.2-0.1-0.4-0.2-0.6-0.3c0,0-0.1,0-0.1,0c-0.5,0.1-1-0.1-1.3-0.6c0,0-0.1-0.1-0.1-0.1
			c0-0.1-0.1-0.1-0.1-0.2c0.1-0.1,0.3-0.1,0.4-0.1c0.5,0,1,0.3,1.2,0.7c0,0,0.1,0.1,0.1,0.1c0.1,0.1,0.2,0.1,0.3,0.2
			c0.3,0.1,0.4,0.3,0.7,0.6c0-0.1,0-0.2,0-0.3c0-0.3,0.1-0.6,0.1-0.9c0,0,0-0.1,0-0.1c-0.3-0.5-0.2-1.3,0.4-1.7
			c0.2,0.2,0.3,0.4,0.3,0.6c0.1,0.4,0,0.8-0.4,1.1c0,0,0,0.1-0.1,0.1c-0.1,0.4-0.1,0.9-0.2,1.4c0,0,0,0,0.1,0
			C16,3,16.2,2.8,16.5,2.7c0,0,0.1-0.1,0.1-0.1c0.2-0.6,0.9-0.9,1.5-0.7c0,0.2-0.1,0.5-0.3,0.6c-0.3,0.3-0.6,0.4-1,0.4
			c0,0-0.1,0-0.1,0c-0.3,0.2-0.7,0.4-1,0.6c0,0,0,0-0.1,0.1c0,0,0,0,0,0C16.2,3.6,16.9,3.6,17.6,3.6z"/>
	</g>
</g>
</svg>
