<?xml version="1.0" encoding="utf-8"?>
<!-- Generator: Adobe Illustrator 21.1.0, SVG Export Plug-In . SVG Version: 6.00 Build 0)  -->
<svg version="1.1" id="Layer_1" xmlns="http://www.w3.org/2000/svg" xmlns:xlink="http://www.w3.org/1999/xlink" x="0px" y="0px"
	 viewBox="0 0 85 28.3" style="enable-background:new 0 0 85 28.3;" xml:space="preserve">
<style type="text/css">
	.st0{fill:#C8945B;}
</style>
<g>
	<g>
		<path class="st0" d="M7.4,9.5v15H4.8v-15H0V7.1h12.4v2.4H7.4z"/>
		<path class="st0" d="M21,22.1v-6.8c0-0.7-0.2-1.2-0.6-1.6c-0.4-0.4-1-0.6-1.7-0.6c-0.4,0-0.8,0.1-1.3,0.3
			c-0.4,0.2-0.7,0.5-0.9,0.8v7.9H14v-15l2.6-0.6v5.4c0.7-0.6,1.6-0.9,2.7-0.9c1.4,0,2.4,0.4,3.2,1.1s1.1,1.8,1.1,3.3v6.8H21V22.1z"
			/>
		<path class="st0" d="M36.2,17.4h-7.8c0,0.9,0.3,1.6,0.9,2c0.6,0.5,1.3,0.7,2.2,0.7c1.2,0,2.1-0.3,2.7-0.9l1,2
			c-0.9,0.7-2.2,1.1-4,1.1c-1.7,0-3-0.5-4-1.5s-1.5-2.3-1.5-4.1c0-1.7,0.5-3.1,1.6-4.2s2.3-1.6,3.8-1.6c1.6,0,2.9,0.5,3.8,1.4
			c1,0.9,1.4,2.2,1.4,3.6C36.4,16.3,36.3,16.8,36.2,17.4z M28.5,15.5h5.4c-0.2-1.6-1.1-2.4-2.7-2.4C29.7,13.1,28.8,13.9,28.5,15.5z"
			/>
		<path class="st0" d="M56.8,21.3l1-2.4c1,0.7,2.1,1.1,3.1,1.1c1.6,0,2.3-0.5,2.3-1.6c0-0.5-0.2-1-0.6-1.5c-0.4-0.5-1.1-1-2.3-1.6
			c-1.1-0.6-1.9-1.1-2.3-1.4c-0.4-0.4-0.7-0.8-0.9-1.3s-0.3-1.1-0.3-1.7c0-1.2,0.4-2.1,1.3-2.9c0.8-0.8,1.9-1.1,3.3-1.1
			c1.7,0,3,0.3,3.8,1l-0.8,2.3c-0.9-0.7-1.9-1-3-1c-0.6,0-1.1,0.2-1.4,0.5c-0.3,0.3-0.5,0.7-0.5,1.3c0,0.9,1,1.8,2.9,2.7
			c1,0.5,1.7,0.9,2.2,1.4c0.4,0.4,0.8,0.9,1,1.4c0.2,0.5,0.3,1.2,0.3,1.8c0,1.2-0.5,2.2-1.4,3c-1,0.8-2.2,1.2-3.9,1.2
			C59.2,22.4,57.9,22,56.8,21.3z"/>
		<path class="st0" d="M68.8,22.1v-8.9h-1.4v-2.1h4v11H68.8z M70.1,6.9c0.4,0,0.8,0.1,1,0.4c0.3,0.3,0.4,0.6,0.4,1
			c0,0.4-0.1,0.8-0.4,1c-0.3,0.3-0.6,0.4-1,0.4s-0.8-0.1-1-0.4c-0.3-0.3-0.4-0.6-0.4-1c0-0.4,0.1-0.8,0.4-1
			C69.3,7.1,69.7,6.9,70.1,6.9z"/>
		<path class="st0" d="M74.8,7.1l2.6-0.6v12.3c0,1.4,0.4,2.2,1.2,2.4c-0.4,0.8-1.1,1.1-2,1.1c-1.2,0-1.7-0.8-1.7-2.4L74.8,7.1
			L74.8,7.1z"/>
		<path class="st0" d="M81,7.1l2.6-0.6v12.3c0,1.4,0.4,2.2,1.2,2.4c-0.4,0.8-1.1,1.1-2,1.1c-1.2,0-1.7-0.8-1.7-2.4L81,7.1L81,7.1z"
			/>
	</g>
	<rect x="4.8" y="24.2" class="st0" width="80.3" height="4.1"/>
	<g>
		<path class="st0" d="M40.8,15.4c3.7,0,7.3,0,11,0c-0.1,0.4-0.1,0.8-0.2,1.1c-0.3,1.6-0.5,3.2-0.8,4.7c-0.2,0.9-0.3,1.9-0.4,2.8
			c-0.1,0.3-0.2,0.4-0.5,0.4c-2.4,0-4.8,0-7.2,0c-0.3,0-0.5-0.1-0.5-0.4c-0.2-1.5-0.5-3-0.7-4.4c-0.2-1.3-0.4-2.6-0.6-3.9
			C40.9,15.6,40.9,15.5,40.8,15.4z"/>
		<path class="st0" d="M52.7,13c0,0.5,0,1,0,1.6c-4.2,0-8.4,0-12.7,0c0-0.5,0-1,0-1.6c2,0,3.9,0,5.9,0c0-0.1,0-0.2,0-0.3
			c-0.3-0.9-0.6-1.8-1.4-2.4c-0.5-0.4-1.1-0.6-1.7-0.9c-0.1,0-0.2,0-0.2,0C41,9.7,39.5,9,38.7,7.6c-0.1-0.1-0.2-0.3-0.2-0.4
			c-0.1-0.2-0.2-0.4-0.2-0.7c0.4-0.2,0.8-0.3,1.2-0.3C41,6.2,42.4,7,43,8.3c0,0.1,0.2,0.2,0.3,0.3c0.3,0.2,0.6,0.3,1,0.5
			c0.8,0.4,1.3,0.8,2,1.9c0-0.3,0.1-0.6,0.1-0.8c0.1-0.9,0.2-1.8,0.4-2.6c0-0.1,0-0.2,0-0.2c-1-1.6-0.6-3.8,1.2-5
			c0.5,0.5,0.8,1.1,0.9,1.8c0.2,1.3-0.1,2.4-1.1,3.4c-0.1,0.1-0.1,0.2-0.2,0.3c-0.2,1.3-0.4,2.7-0.6,4.1c0.1,0,0.1-0.1,0.2-0.1
			c0.8-0.5,1.6-1,2.5-1.6c0.1-0.1,0.2-0.2,0.2-0.3c0.5-2,2.6-3,4.4-2.3c-0.1,0.7-0.4,1.4-0.9,1.9c-0.8,0.9-1.9,1.3-3.1,1.1
			c-0.1,0-0.3,0-0.4,0.1c-1,0.6-2,1.3-3,1.9c-0.1,0-0.1,0.1-0.2,0.2c0,0,0,0,0,0.1C48.7,13,50.7,13,52.7,13z"/>
	</g>
</g>
</svg>
